<?xml version="1.0" standalone="no"?>
<!DOCTYPE svg PUBLIC "-//W3C//DTD SVG 20010904//EN"
 "http://www.w3.org/TR/2001/REC-SVG-20010904/DTD/svg10.dtd">
<svg version="1.0" xmlns="http://www.w3.org/2000/svg"
 width="1300.000000pt" height="1022.000000pt" viewBox="0 0 1300.000000 1022.000000"
 preserveAspectRatio="xMidYMid meet">

<g transform="translate(0.000000,1022.000000) scale(0.100000,-0.100000)"
fill="#000000" stroke="none">
<path d="M9345 7144 c-11 -3 -58 -14 -105 -26 -79 -19 -266 -84 -455 -158
-210 -83 -709 -268 -1200 -445 -88 -32 -171 -62 -184 -67 l-24 -9 39 -42 39
-42 -45 41 -45 42 -95 -35 c-142 -53 -365 -134 -545 -198 -217 -78 -425 -154
-575 -210 -282 -104 -322 -116 -360 -104 -19 6 -129 55 -245 109 -297 138
-454 194 -519 184 -14 -2 -213 -100 -226 -111 -16 -14 116 -157 138 -148 9 3
12 0 9 -9 -3 -8 5 -24 19 -37 13 -12 24 -18 24 -12 0 6 -10 18 -23 26 -12 9
-17 16 -10 16 18 1 54 -41 49 -56 -3 -7 9 -26 26 -41 17 -15 36 -32 43 -39 6
-6 18 -11 26 -10 8 1 14 -2 14 -8 0 -5 -3 -9 -7 -8 -20 7 0 -15 94 -107 84
-80 106 -96 117 -87 18 15 20 19 -54 -146 -31 -71 -55 -131 -52 -133 2 -3 25
0 51 7 41 10 61 27 193 169 82 87 150 156 152 154 1 -1 -30 -42 -70 -89 -41
-48 -78 -93 -83 -100 -13 -18 7 -41 69 -76 72 -41 149 -38 514 21 257 42 1105
211 1117 222 1 2 14 46 27 98 33 126 32 95 -3 -145 -17 -110 -50 -337 -75
-505 -24 -168 -60 -414 -80 -547 -41 -286 -41 -280 -17 -262 10 8 9 4 -5 -11
-16 -19 -26 -53 -38 -133 -9 -60 -15 -111 -12 -114 5 -4 331 174 395 215 14 9
47 64 79 131 106 221 191 397 328 676 164 335 177 364 168 377 -3 6 -1 8 4 5
6 -4 16 6 22 23 6 18 6 28 1 25 -6 -4 -10 1 -10 10 0 9 5 13 10 10 6 -3 10 1
10 9 0 8 -5 18 -11 22 -22 13 -49 91 -43 123 4 17 11 28 17 24 6 -3 7 -1 3 6
-9 14 15 39 33 33 8 -3 11 0 8 5 -9 15 46 69 71 69 12 0 22 -2 22 -3 0 -10
-42 -43 -49 -38 -5 2 -15 -3 -22 -13 -13 -15 -12 -16 4 -3 30 24 18 1 -18 -33
-24 -23 -35 -42 -35 -62 0 -16 -3 -40 -6 -54 -4 -18 -3 -21 4 -11 13 18 41
-22 36 -52 -4 -23 158 297 175 345 9 26 9 27 -15 16 -13 -6 -24 -16 -24 -21 0
-5 7 -4 15 3 29 24 15 -3 -17 -34 -18 -17 -44 -32 -57 -33 -23 -2 -23 -1 10
33 126 130 150 161 181 236 18 43 33 76 35 75 1 -2 -3 -27 -11 -55 -7 -29 -10
-55 -5 -57 4 -3 10 1 12 7 3 7 6 3 6 -9 1 -12 -7 -28 -17 -35 -18 -12 -47 -78
-35 -78 3 0 48 12 101 26 100 27 122 37 156 67 11 10 31 20 43 22 13 3 35 8
51 11 26 5 26 5 7 -10 -18 -13 -16 -14 25 -4 88 21 428 131 596 193 560 208
835 365 905 518 25 56 25 146 0 195 -34 66 -127 138 -210 163 l-42 13 -337
-335 -337 -334 334 336 c264 266 330 338 315 342 -67 18 -68 18 -94 -36 -14
-28 -57 -84 -96 -125 -64 -67 -73 -73 -100 -66 -16 3 -38 15 -48 25 -19 18
-19 19 50 86 38 37 79 88 92 113 l22 45 -53 25 c-42 19 -70 25 -147 26 -52 2
-104 1 -115 -2z m-315 -564 c11 -21 -13 -60 -39 -60 -41 0 -55 49 -20 74 24
16 45 12 59 -14z m-155 -74 c0 -36 -27 -56 -52 -40 -40 25 -20 77 26 72 21 -2
26 -8 26 -32z m-150 -46 c9 -15 -4 -47 -22 -54 -37 -15 -67 13 -56 52 8 33 59
33 78 2z m-171 -56 c19 -18 19 -20 6 -45 -20 -36 -80 -21 -80 21 0 13 30 40
45 40 7 0 21 -7 29 -16z m-3437 -291 c3 -9 -71 -93 -82 -93 -1 0 -6 8 -9 17
-5 11 5 29 31 55 36 37 53 43 60 21z m2494 -13 c20 -11 24 -36 10 -59 -9 -13
-56 -19 -68 -8 -11 12 -5 59 8 68 18 11 26 11 50 -1z m-143 -42 c34 -34 -6
-90 -48 -68 -35 19 -20 80 20 80 9 0 21 -5 28 -12z m-2441 -48 c3 -16 9 -30
14 -30 4 0 11 -9 14 -20 8 -26 21 -25 49 3 13 13 28 21 34 19 7 -2 10 3 6 12
-4 12 -2 15 9 10 8 -3 18 0 23 7 5 8 3 10 -6 4 -9 -5 -11 -4 -6 3 9 15 36 16
36 2 0 -5 -18 -28 -39 -50 -31 -32 -39 -48 -38 -75 1 -19 4 -30 8 -24 4 7 17
0 36 -18 24 -23 27 -31 17 -41 -18 -16 -47 -3 -41 19 3 11 0 16 -8 13 -13 -6
-155 127 -155 146 0 18 20 50 31 50 5 0 12 -13 16 -30z m2297 4 c9 -8 16 -22
16 -29 0 -16 -27 -45 -42 -45 -16 0 -48 31 -48 46 0 17 28 44 45 44 7 0 21 -7
29 -16z m1061 -30 c26 -6 27 -8 10 -15 -34 -13 -85 -10 -85 4 0 19 11 28 29
23 9 -3 29 -8 46 -12z m-1207 -6 c34 -34 -6 -90 -48 -68 -35 19 -20 80 20 80
9 0 21 -5 28 -12z m1119 -20 c-3 -7 -5 -2 -5 12 0 14 2 19 5 13 2 -7 2 -19 0
-25z m151 -7 c10 -6 10 -10 -2 -21 -13 -10 -20 -9 -41 4 -14 9 -25 19 -25 21
0 8 54 5 68 -4z m-1420 -10 c8 -5 12 -21 10 -37 -3 -32 -38 -45 -64 -24 -40
34 9 90 54 61z m-138 -46 c7 -9 10 -25 6 -40 -6 -22 -11 -26 -39 -23 -27 3
-33 8 -35 32 -5 43 41 64 68 31z m-145 -59 c0 -52 -63 -62 -73 -12 -7 33 6 47
40 44 29 -3 33 -7 33 -32z m755 -1129 c0 -2 -17 -19 -37 -38 l-38 -34 34 38
c33 34 41 42 41 34z m-80 -80 c0 -2 -17 -19 -37 -38 l-38 -34 34 38 c33 34 41
42 41 34z m-80 -80 c0 -2 -17 -19 -37 -38 l-38 -34 34 38 c33 34 41 42 41 34z
m-80 -80 c0 -2 -17 -19 -37 -38 l-38 -34 34 38 c33 34 41 42 41 34z m-80 -80
c0 -2 -17 -19 -37 -38 l-38 -34 34 38 c33 34 41 42 41 34z m-80 -80 c0 -2 -17
-19 -37 -38 l-38 -34 34 38 c33 34 41 42 41 34z"/>
<path d="M5064 6078 c-16 -18 -20 -26 -9 -18 30 23 56 50 47 50 -5 0 -21 -14
-38 -32z"/>
<path d="M5017 5960 c10 -11 19 -20 21 -20 1 0 -2 9 -8 20 -6 11 -15 20 -20
20 -6 0 -2 -9 7 -20z"/>
<path d="M6390 6857 c-52 -11 -97 -22 -99 -23 -7 -6 532 -544 545 -544 11 0
77 23 391 138 57 20 103 39 103 42 0 3 -60 66 -134 139 -129 129 -137 135
-198 152 -35 9 -145 40 -245 68 -106 30 -200 50 -225 50 -24 -1 -86 -11 -138
-22z"/>
<path d="M7210 6605 l136 -135 54 19 c191 70 244 90 238 90 -8 1 -525 148
-548 157 -8 2 46 -56 120 -131z"/>
<path d="M8510 5940 c-18 -12 -2 -12 25 0 13 6 15 9 5 9 -8 0 -22 -4 -30 -9z"/>
<path d="M5004 5335 c-10 -8 -27 -15 -37 -15 -11 0 -15 -4 -11 -12 4 -7 3 -8
-4 -4 -7 4 -24 0 -39 -8 -16 -8 -67 -33 -115 -55 -49 -22 -88 -43 -88 -46 0
-3 5 -3 12 1 7 4 8 3 4 -4 -4 -6 -13 -9 -20 -6 -17 7 -108 -40 -99 -51 5 -4 3
-5 -4 -2 -15 9 -45 -2 -37 -14 3 -5 -1 -6 -9 -4 -7 3 -29 -5 -49 -19 -20 -13
-38 -22 -41 -20 -3 3 -56 -47 -118 -110 -123 -125 -138 -133 -190 -95 l-30 21
-95 -59 c-52 -32 -112 -68 -132 -79 -20 -12 -38 -27 -40 -33 -2 -6 -7 -9 -11
-7 -9 6 -223 -144 -374 -264 -252 -199 -462 -435 -546 -613 -18 -38 -30 -75
-27 -83 3 -8 2 -13 -3 -10 -5 3 -12 -9 -15 -27 -3 -17 -8 -42 -10 -54 -4 -18
10 -38 62 -89 l67 -67 7 84 c6 86 38 188 80 258 14 25 -16 0 -98 -79 -110
-106 -108 -104 27 35 81 83 151 158 155 167 5 9 33 42 62 72 37 39 50 59 46
72 -5 15 -4 16 4 4 9 -12 14 -10 34 10 24 25 102 97 171 158 21 18 35 37 32
42 -4 6 1 7 11 3 13 -5 16 -3 11 10 -3 9 -1 19 5 23 6 4 8 3 4 -4 -13 -21 20
-19 44 3 32 29 274 189 368 244 71 41 89 56 55 45 -14 -5 -15 -4 -4 4 8 6 20
8 28 5 7 -3 13 1 13 8 0 7 3 9 7 6 3 -4 11 -3 17 2 6 5 43 26 81 46 91 49 106
60 98 69 -4 4 0 4 9 1 10 -4 35 4 60 18 24 14 109 59 191 100 81 40 144 77
140 82 -5 4 -3 5 4 2 16 -10 64 10 61 25 -2 8 5 12 17 11 27 -4 116 38 108 50
-4 6 -1 7 6 3 14 -9 182 64 175 76 -3 4 1 5 8 3 18 -7 130 39 126 51 -2 5 -7
8 -11 6 -5 -1 -6 1 -3 6 5 9 -107 122 -121 122 -5 0 -18 -7 -29 -15z m-529
-285 c-3 -5 -12 -10 -18 -10 -7 0 -6 4 3 10 19 12 23 12 15 0z m-623 -428 c-7
-2 -9 -9 -6 -14 4 -6 3 -8 -3 -5 -12 8 -136 -117 -126 -127 4 -4 1 -6 -7 -4
-9 2 -14 -3 -12 -12 2 -8 0 -12 -4 -7 -4 4 -35 -18 -68 -50 -34 -32 2 7 79 87
77 80 144 143 150 141 5 -3 4 -6 -3 -9z"/>
<path d="M4213 4939 c-53 -31 -58 -45 -24 -66 25 -16 49 2 53 42 2 17 10 35
18 42 25 21 7 14 -47 -18z"/>
<path d="M2872 3537 c2 -49 10 -92 17 -101 8 -9 11 -16 7 -16 -13 0 54 -119
100 -176 82 -103 210 -197 401 -294 57 -28 108 -53 115 -54 7 -2 39 -15 72
-29 71 -33 76 -33 43 -4 -39 33 -33 44 7 14 18 -15 37 -23 40 -19 4 3 4 -1 1
-9 -5 -13 16 -23 109 -53 63 -21 121 -39 128 -40 7 -1 29 -7 48 -14 31 -10 63
-18 110 -26 8 -2 22 -6 30 -9 17 -7 195 -51 250 -62 71 -15 21 4 -110 40 -200
54 -433 132 -535 178 -49 22 -97 40 -105 40 -8 0 -22 5 -30 12 -8 7 -46 29
-85 50 -102 56 -204 123 -255 170 -25 23 -52 46 -60 51 -40 25 -150 215 -150
260 0 13 -30 52 -76 99 l-77 78 5 -86z m483 -537 c3 -6 -1 -7 -9 -4 -18 7 -21
14 -7 14 6 0 13 -4 16 -10z"/>
<path d="M4408 2633 c7 -3 16 -2 19 1 4 3 -2 6 -13 5 -11 0 -14 -3 -6 -6z"/>
<path d="M4458 2623 c7 -3 16 -2 19 1 4 3 -2 6 -13 5 -11 0 -14 -3 -6 -6z"/>
</g>
</svg>
